<svg width="24" height="24" viewBox="0 0 24 24" fill="none" xmlns="http://www.w3.org/2000/svg">
<path d="M20.363 17.0369C19.6925 16.3659 18.9091 15.8183 18.0487 15.419C19.2621 14.436 20.0362 12.936 20.0362 11.2539C20.0362 8.28601 17.5612 5.85119 14.5933 5.89672C11.671 5.94226 9.31656 8.32351 9.31656 11.2539C9.31656 12.936 10.0933 14.436 11.3041 15.419C10.4434 15.818 9.66 16.3657 8.98977 17.0369C7.52727 18.5021 6.69691 20.436 6.64334 22.4985C6.64263 22.5271 6.64764 22.5555 6.65809 22.5822C6.66854 22.6088 6.68421 22.633 6.70418 22.6535C6.72415 22.674 6.74801 22.6902 6.77437 22.7013C6.80072 22.7124 6.82903 22.7182 6.85763 22.7182H8.35763C8.47281 22.7182 8.56924 22.6271 8.57191 22.5119C8.62281 20.9583 9.25227 19.5039 10.3585 18.4003C10.9246 17.8312 11.5979 17.38 12.3396 17.0729C13.0812 16.7658 13.8764 16.6088 14.6791 16.611C16.3103 16.611 17.8451 17.2458 18.9996 18.4003C20.1032 19.5039 20.7326 20.9583 20.7862 22.5119C20.7889 22.6271 20.8853 22.7182 21.0005 22.7182H22.5005C22.5291 22.7182 22.5574 22.7124 22.5837 22.7013C22.6101 22.6902 22.634 22.674 22.6539 22.6535C22.6739 22.633 22.6896 22.6088 22.7 22.5822C22.7105 22.5555 22.7155 22.5271 22.7148 22.4985C22.6612 20.436 21.8308 18.5021 20.363 17.0369ZM14.6791 14.6824C13.763 14.6824 12.9005 14.3262 12.2549 13.678C11.931 13.3566 11.6751 12.9732 11.5025 12.5507C11.3299 12.1283 11.2442 11.6754 11.2505 11.219C11.2585 10.3405 11.6094 9.49137 12.2228 8.8619C12.8657 8.20297 13.7255 7.83601 14.6442 7.8253C15.5523 7.81726 16.4335 8.17083 17.0817 8.80565C17.746 9.45655 18.1103 10.3271 18.1103 11.2539C18.1103 12.1699 17.7541 13.0298 17.1058 13.678C16.7878 13.9975 16.4096 14.2508 15.993 14.4232C15.5765 14.5957 15.1299 14.6838 14.6791 14.6824ZM7.96924 11.961C7.94513 11.728 7.93174 11.4923 7.93174 11.2539C7.93174 10.828 7.97191 10.4128 8.04691 10.0083C8.06566 9.9119 8.01477 9.8128 7.92638 9.77262C7.56209 9.60922 7.22727 9.38422 6.93799 9.1003C6.59711 8.76978 6.32887 8.37184 6.15039 7.93186C5.97191 7.49188 5.8871 7.01953 5.90138 6.54494C5.92549 5.68512 6.27102 4.86815 6.8737 4.25208C7.53531 3.5744 8.42459 3.20476 9.37013 3.21547C10.2246 3.22351 11.0496 3.55297 11.6737 4.1369C11.8853 4.33512 12.0675 4.55476 12.2201 4.79047C12.2737 4.87351 12.3782 4.90833 12.4692 4.87619C12.9407 4.71279 13.4389 4.59762 13.9505 4.54404C14.1005 4.52797 14.1862 4.36726 14.1192 4.23333C13.2487 2.51101 11.4701 1.32172 9.41299 1.28958C6.44245 1.24404 3.96745 3.67887 3.96745 6.64404C3.96745 8.32619 4.74156 9.82619 5.95495 10.8092C5.10316 11.203 4.31834 11.7467 3.63799 12.4271C2.17013 13.8923 1.33977 15.8262 1.2862 17.8914C1.28548 17.92 1.2905 17.9484 1.30095 17.975C1.3114 18.0016 1.32707 18.0259 1.34704 18.0464C1.36701 18.0668 1.39087 18.0831 1.41723 18.0942C1.44358 18.1053 1.47189 18.111 1.50049 18.111H3.00316C3.11834 18.111 3.21477 18.0199 3.21745 17.9048C3.26834 16.3512 3.89781 14.8967 5.00406 13.7932C5.79156 13.0057 6.75584 12.4592 7.80852 12.194C7.91299 12.1673 7.98263 12.0682 7.96924 11.961Z" stroke="#FFFFFF" fill="#FFFFFF" fill-opacity="1"/>
</svg>
